<?xml version='1.0' encoding='utf-8'?>
<svg xmlns="http://www.w3.org/2000/svg" version="1.1" viewBox="0 0 80.223 107.96"> <g transform="translate(-199.94 -125.95)"> <g stroke="#000" stroke-dasharray="" stroke-miterlimit="10" stroke-width="2" style="mix-blend-mode:normal" data-paper-data="{&quot;isPaintingLayer&quot;:true}"> <path d="m202.83 230.34c-2.5386-3.438-2.492-97.308 0-100.68 2.8866-3.9093 71.913-3.2918 74.344 0 2.5396 3.4393 2.7727 96.927 0 100.68-2.6899 3.6429-71.965 3.2219-74.344 0z" fill="#fff"/> <path d="m208.49 159.66v-8.9212h8.9212v8.9212z" fill="none"/> <path d="m225.39 152.61s5.1751 6.104 9.3908 6.104c2.8729 0 2.1038-3.4843 7.959-4.3773 5.3058-0.80926 3.8093 2.9858 9.8754 2.7569 4.1997-0.1585 5.9349-2.9574 10.774-4.1484 3.7917-0.93309 8.4848 2.9516 8.4848 2.9516" fill="none" stroke-linecap="round"/> <path d="m208.49 172.4v-8.9212h8.9212v8.9212z" fill="none"/> <path d="m225.39 196.95s5.1751-6.104 9.3908-6.104c2.8729 0 2.1038 3.4843 7.959 4.3773 5.3058 0.80927 3.8093-2.9858 9.8754-2.7569 4.1997 0.1585 5.9349 2.9574 10.774 4.1484 3.7917 0.93309 8.4848-2.9516 8.4848-2.9516" fill="none" stroke-linecap="round" data-paper-data="{&quot;index&quot;:null}"/> <path d="m208.49 185.15v-8.9212h8.9212v8.9212z" fill="none"/> <path d="m225.39 178.1s4.3255 4.8295 8.5411 4.8295c2.8729 0 2.9535-0.51053 8.8087-1.4036 5.3058-0.80927 3.8093 1.2866 9.8754 1.0576 4.1997-0.1585 7.6342-2.9574 12.474-4.1484 3.7917-0.93309 5.9358 2.9516 5.9358 2.9516" fill="none" stroke-linecap="round"/> <path d="m208.49 197.89v-8.9212h8.9212v8.9212z" fill="none"/> <path d="m225.39 171.46s5.1751-6.104 9.3908-6.104c2.8729 0 2.1038 3.4843 7.959 4.3773 5.3058 0.80927 3.8093-2.9858 9.8754-2.7569 4.1997 0.1585 5.9349 2.9574 10.774 4.1484 3.7917 0.93309 8.4848-2.9516 8.4848-2.9516" fill="none" stroke-linecap="round" data-paper-data="{&quot;index&quot;:null}"/> <path d="m208.49 210.64v-8.9212h8.9212v8.9212z" fill="none"/> <path d="m225.39 203.59s5.1751 6.104 9.3908 6.104c2.8729 0 2.1038-3.4843 7.959-4.3773 5.3058-0.80927 3.8093 2.9858 9.8754 2.7569 4.1997-0.1585 5.9349-2.9574 10.774-4.1484 3.7917-0.93309 8.4848 2.9516 8.4848 2.9516" fill="none" stroke-linecap="round"/> <path d="m208.49 223.38v-8.9212h8.9212v8.9212z" fill="none"/> <path d="m225.39 216.34s5.1751 6.104 9.3908 6.104c2.8729 0 6.6705-5.6397 12.737-5.8686 4.1997-0.1585 8.9086 5.1142 13.748 3.9232 3.7917-0.93309 10.609-0.8718 10.609-0.8718" fill="none" stroke-linecap="round"/> <path d="m208.78 146.44v-11.895h62.449v11.895z" fill="none"/> </g> </g> </svg>